<svg xmlns="http://www.w3.org/2000/svg" width="1000" height="1000" viewBox="0 0 1000 1000">
  <defs>
    <style>
      .cls-1 {
        fill-rule: evenodd;
      }
    </style>
  </defs>
  <path id="Ellipse_4_copy" data-name="Ellipse 4 copy" class="cls-1" d="M827.823,252.333L707.214,413.144,820.607,753.322a28.408,28.408,0,0,1-4.021,32.8l-0.02.107-0.8.805h0l-48.244,48.243L587.735,533.5,365.489,714.666l56.894,132.753s-0.01.064-.028,0.173a14.2,14.2,0,0,1-3.3,14.517c-0.006.006-.012,0.021-0.018,0.027l-0.075.075h0l-13.267,13.267-281.42-281.42,13.216-13.217h0.006c0.016-.016.029-0.034,0.045-0.049a14.208,14.208,0,0,1,15.588-3.035l0.077-.015L285.083,634.26,465.552,412.876,165.279,231.427l47.439-47.439a28.415,28.415,0,0,1,28.006-7.2l0.136-.035L586.605,292.536,747.417,171.927c43.586-32.992,95.176-57.755,117.406-42.788,0.246,0.162.488,0.326,0.726,0.5,0.27,0.2.539,0.4,0.8,0.607a17.991,17.991,0,0,1,3.16,3.16c0.208,0.258.4,0.524,0.6,0.791,0.176,0.244.344,0.494,0.51,0.746C885.557,157.176,860.706,208.743,827.823,252.333Z"/>
</svg>
