<svg xmlns="http://www.w3.org/2000/svg" width="1000" height="1000" viewBox="0 0 1000 1000">
  <defs>
    <style>
      .cls-1 {
        fill-rule: evenodd;
      }
    </style>
  </defs>
  <path class="cls-1" d="M800,175H700V137c0-20.71-16.789-37-37.5-37A37.5,37.5,0,0,0,625,137.5V175H350.011L350,137.5a37.5,37.5,0,0,0-75,0V175H100V800a75,75,0,0,0,75,75H875V250A75,75,0,0,0,800,175Zm25,650H187.5A37.5,37.5,0,0,1,150,787.5V400H787.5A37.5,37.5,0,0,1,825,437.5V825ZM250,262.5a62.4,62.4,0,0,1,25-50v50a37.5,37.5,0,0,0,75,0V250h0.011V212.507A62.5,62.5,0,1,1,250,262.5Zm350,0a62.4,62.4,0,0,1,25-50v50a37.5,37.5,0,0,0,75,0L699.989,250H700V213a61.471,61.471,0,0,1,25,49.5A62.5,62.5,0,0,1,600,262.5Z"/>
</svg>
