<svg xmlns="http://www.w3.org/2000/svg" width="1000" height="1000" viewBox="0 0 1000 1000">
  <defs>
    <style>
      .cls-1 {
        fill-rule: evenodd;
      }
    </style>
  </defs>
  <path class="cls-1" d="M825,350H804.175C757.809,189.3,639.113,75,500,75S242.191,189.3,195.825,350H175A100,100,0,0,0,75,450V550A100,100,0,0,0,175,650h20.825C242.191,810.7,360.887,925,500,925S757.809,810.7,804.175,650H825A100,100,0,0,0,925,550V450A100,100,0,0,0,825,350ZM732.3,700H570.715a75,75,0,1,0,0,50h133.7q-6.862,10.382-14.328,20.148c-25.629,33.514-55.164,59.656-87.788,77.7C569.731,865.865,535.311,875,500,875s-69.731-9.135-102.3-27.152c-32.624-18.044-62.159-44.186-87.788-77.7-26.388-34.507-47.178-74.917-61.794-120.106C232.777,602.624,225,552.143,225,500s7.777-102.624,23.114-150.042q6.078-18.791,13.576-36.448a34.215,34.215,0,0,1,36.353-20.449c38.747,5.533,108.3,26.755,201.957,100.927,113.475,89.866,234.045,65.1,271.183,43.72A507.783,507.783,0,0,1,775,500c0,52.143-7.777,102.624-23.114,150.042A434.472,434.472,0,0,1,732.3,700Z"/>
</svg>
