<svg xmlns="http://www.w3.org/2000/svg" width="1000" height="1000" viewBox="0 0 1000 1000">
  <defs>
    <style>
      .cls-1 {
        fill-rule: evenodd;
      }
    </style>
  </defs>
  <path id="Bed" class="cls-1" d="M225,400h25V350a50.147,50.147,0,0,1,50-50H425a50.147,50.147,0,0,1,50,50v50h50V350a50.147,50.147,0,0,1,50-50H700a50.147,50.147,0,0,1,50,50v50h25a25,25,0,0,0,25-25V250a50.147,50.147,0,0,0-50-50H250a50.147,50.147,0,0,0-50,50V375A25,25,0,0,0,225,400ZM75,700a25.073,25.073,0,0,0,25,25h25v50a25.073,25.073,0,0,0,25,25h25a25.073,25.073,0,0,0,25-25V725H800v50a25.073,25.073,0,0,0,25,25h25a25.073,25.073,0,0,0,25-25V725h25a25.073,25.073,0,0,0,25-25V650H75v50ZM800,425H743.24A50.1,50.1,0,0,1,700,450H575a50.1,50.1,0,0,1-43.24-25H468.24A50.1,50.1,0,0,1,425,450H300a50.1,50.1,0,0,1-43.24-25H200c-68.75,0-125,56.25-125,125v75H925V550C925,481.25,868.75,425,800,425Z"/>
</svg>
